<svg width="16" height="16" viewBox="0 0 16 16" fill="none" xmlns="http://www.w3.org/2000/svg">
<path d="M2.30115 1.83333H13.6771C13.9557 1.83333 14.1196 2.04566 14.1039 2.23763L14.1019 2.25912V13.6986C14.1019 13.9601 13.8956 14.1663 13.6342 14.1663H2.30115C2.04682 14.1663 1.83337 13.9458 1.83337 13.6986V2.30111C1.83337 2.07216 1.99157 1.88601 2.20642 1.8431L2.30115 1.83333ZM4.27966 2.66146C3.37987 2.66146 2.64001 3.4013 2.64001 4.30111C2.64003 4.98393 3.05639 5.57907 3.66638 5.82259H2.81189V13.1663H5.76892V5.82259H4.90369C5.51886 5.5778 5.9193 4.9794 5.91931 4.30111C5.91931 3.40132 5.17944 2.66148 4.27966 2.66146ZM10.3656 5.6722C9.81464 5.67221 9.34931 5.81393 8.97302 6.03255V5.82259H6.05896V13.1663H9.01599V9.52669C9.016 9.12658 9.05759 8.8294 9.15955 8.64193C9.20412 8.55999 9.25717 8.50636 9.32361 8.46908C9.39268 8.43035 9.50694 8.39295 9.69861 8.3929C9.86901 8.3929 9.95365 8.4322 9.99744 8.46322C10.0431 8.49559 10.0892 8.55036 10.1293 8.65169C10.2198 8.8811 10.2308 9.20682 10.2308 9.59115V13.1663H13.2308V9.22591C13.2308 8.33604 13.145 7.44478 12.722 6.77181C12.2644 6.04394 11.4853 5.6722 10.3656 5.6722Z" fill="#F9FAFB" stroke="#F9FAFB"/>
</svg>
