<svg width="38" height="38" viewBox="0 0 38 38" fill="none" xmlns="http://www.w3.org/2000/svg">
<path fill-rule="evenodd" clip-rule="evenodd" d="M17.6876 0.0184752C17.6058 0.0328806 17.1469 0.0845615 16.6678 0.133272C15.9751 0.203739 15.7896 0.246733 15.7623 0.343189C15.7434 0.409943 15.6541 0.932321 15.5638 1.50408C15.4736 2.07584 15.3626 2.5801 15.3173 2.62465C15.2505 2.69014 14.1372 3.02629 13.987 3.02629C13.9647 3.02629 13.6367 2.65041 13.2582 2.19093C12.8797 1.73152 12.5271 1.30812 12.4748 1.2502C12.3933 1.15991 12.3073 1.17506 11.8746 1.35557C10.3663 1.9851 8.81061 2.86605 7.54313 3.80833L6.81031 4.35321L7.24715 5.50942L7.68406 6.66571L7.16732 7.182L6.6505 7.69821L5.49303 7.26175L4.33563 6.82535L3.7902 7.55743C2.84694 8.82361 1.96509 10.3777 1.33492 11.8844C1.15422 12.3167 1.13906 12.4027 1.22944 12.484C1.28742 12.5363 1.71118 12.8885 2.17113 13.2667C2.63101 13.6448 3.00735 13.9724 3.00735 13.9947C3.00735 14.1447 2.67085 15.2569 2.6053 15.3236C2.5607 15.3689 2.05592 15.4798 1.48358 15.5699C0.911234 15.66 0.388766 15.7491 0.322612 15.7679C-0.107537 15.8894 -0.107537 22.0925 0.322612 22.214C0.388766 22.2327 0.911234 22.3218 1.48358 22.412C2.05592 22.5021 2.5607 22.613 2.6053 22.6583C2.67085 22.725 3.00735 23.8371 3.00735 23.9872C3.00735 24.0095 2.63109 24.3371 2.17113 24.7152C1.71125 25.0934 1.28742 25.4456 1.22944 25.4978C1.13906 25.5792 1.15422 25.6652 1.33492 26.0974C1.96509 27.6042 2.84694 29.1583 3.7902 30.4244L4.33563 31.1565L5.49303 30.7201L6.6505 30.2837L7.16732 30.7999L7.68406 31.3162L7.24715 32.4724L6.81031 33.6287L7.54313 34.1735C8.81061 35.1158 10.3663 35.9968 11.8746 36.6263C12.3073 36.8068 12.3933 36.822 12.4748 36.7317C12.5271 36.6737 12.8818 36.2478 13.263 35.7851C13.8339 35.0924 13.9836 34.9514 14.1122 34.9857C14.1981 35.0086 14.5025 35.0833 14.7887 35.1516C15.0749 35.22 15.3227 35.2871 15.3393 35.3008C15.3561 35.3144 15.4595 35.8608 15.5692 36.5149C15.6789 37.169 15.7823 37.7177 15.799 37.7342C15.8732 37.8075 18.1826 38 18.9884 38C19.7941 38 22.1035 37.8075 22.1777 37.7342C22.1945 37.7177 22.2978 37.169 22.4076 36.5149C22.5173 35.8608 22.6207 35.3164 22.6374 35.3051C22.654 35.2938 22.9019 35.2265 23.188 35.1555C23.4742 35.0846 23.7786 35.0079 23.8645 34.9853C23.9929 34.9513 24.1436 35.0933 24.7137 35.7851C25.0949 36.2478 25.4496 36.6737 25.5019 36.7317C25.5834 36.822 25.6695 36.8068 26.1021 36.6263C27.6105 35.9968 29.1661 35.1158 30.4336 34.1735L31.1664 33.6287L30.7296 32.4724L30.2927 31.3162L30.8094 30.7999L31.3262 30.2837L32.4837 30.7201L33.6411 31.1565L34.1865 30.4244C34.8749 29.5004 35.4449 28.581 35.9404 27.5959C36.3319 26.8172 36.8276 25.706 36.8276 25.6069C36.8276 25.5774 36.4258 25.2256 35.9348 24.8253C35.4437 24.4249 35.0242 24.0687 35.0025 24.0336C34.9498 23.9484 35.2685 22.7625 35.3714 22.6605C35.416 22.6164 35.9414 22.5042 36.5389 22.4112C37.1363 22.3182 37.6604 22.2204 37.7035 22.1937C37.8603 22.097 38.0387 19.7767 37.9926 18.434C37.9452 17.0515 37.813 15.8621 37.6984 15.7875C37.6581 15.7612 37.1363 15.6637 36.5389 15.5706C35.9414 15.4777 35.416 15.3655 35.3714 15.3214C35.2685 15.2194 34.9498 14.0334 35.0025 13.9483C35.0242 13.9132 35.4437 13.5569 35.9348 13.1566C36.4258 12.7563 36.8276 12.4045 36.8276 12.375C36.8276 12.2759 36.3319 11.1647 35.9404 10.386C35.4449 9.40086 34.8749 8.48145 34.1865 7.55743L33.6411 6.82535L32.4837 7.26175L31.3262 7.69821L30.8094 7.182L30.2927 6.66571L30.7296 5.50942L31.1664 4.35321L30.4336 3.80833C29.4774 3.09742 28.5799 2.54653 27.4834 1.9975C26.6616 1.58591 25.7173 1.16993 25.6049 1.16993C25.5788 1.16993 25.2294 1.57135 24.8287 2.06188C24.4279 2.55247 24.0713 2.97156 24.0362 2.99325C23.9513 3.04567 22.7648 2.72794 22.6595 2.62465C22.6141 2.5801 22.5031 2.07584 22.4129 1.50408C22.3227 0.932321 22.2338 0.411354 22.2154 0.346307C22.1903 0.257499 22.0021 0.204853 21.4586 0.134683C20.7776 0.0466918 18.0111 -0.038552 17.6876 0.0184752ZM20.1452 2.25263C20.2806 2.28902 20.3188 2.42179 20.4707 3.38405C20.5654 3.98365 20.6642 4.4983 20.6905 4.52771C20.7167 4.55719 21.1723 4.66731 21.7029 4.77252C22.2335 4.87767 23.1279 5.11647 23.6903 5.30314C24.4245 5.54685 24.7391 5.62066 24.8062 5.56511C24.8576 5.52249 25.1996 5.121 25.5661 4.67287L26.2325 3.85816L26.6801 4.08181C27.3976 4.44046 28.3616 5.0388 28.4053 5.15271C28.4275 5.2104 28.2687 5.72899 28.0523 6.30506L27.6589 7.35249L28.0622 7.69086C28.5823 8.12718 29.864 9.40777 30.3018 9.92844L30.6422 10.3333L31.6957 9.94091C32.2752 9.72513 32.7935 9.56548 32.8475 9.5862C32.9559 9.62771 33.5625 10.6076 33.9128 11.3071L34.1367 11.7542L33.3211 12.42C32.8725 12.7861 32.4706 13.1277 32.428 13.1791C32.3724 13.246 32.4463 13.5604 32.6905 14.2938C32.8775 14.8556 33.1021 15.6996 33.1896 16.1693C33.2771 16.6389 33.3751 17.0916 33.4073 17.1751C33.4579 17.3067 33.6154 17.3507 34.584 17.5037C35.5748 17.6602 35.7069 17.6979 35.7435 17.8344C35.7989 18.0404 35.7986 19.8057 35.7431 20.0828L35.6992 20.302L34.5825 20.4784C33.6153 20.6312 33.4579 20.6752 33.4073 20.8067C33.3751 20.8903 33.2771 21.3429 33.1896 21.8126C33.1021 22.2822 32.8775 23.1262 32.6905 23.688C32.4463 24.4215 32.3724 24.7358 32.428 24.8028C32.4706 24.8542 32.8725 25.1958 33.3211 25.5619L34.1367 26.2277L33.9128 26.6748C33.5625 27.3742 32.9559 28.3542 32.8475 28.3957C32.7935 28.4164 32.2752 28.2567 31.6957 28.041L30.6422 27.6485L30.3018 28.0534C29.864 28.5741 28.5823 29.8547 28.0622 30.291L27.6589 30.6294L28.0523 31.6768C28.2687 32.2529 28.4275 32.7715 28.4053 32.8292C28.3616 32.9431 27.3976 33.5414 26.6801 33.9001L26.2325 34.1237L25.5661 33.309C25.1996 32.8609 24.8576 32.4594 24.8062 32.4168C24.7391 32.3612 24.4245 32.4351 23.6903 32.679C23.1279 32.8658 22.2831 33.0902 21.8129 33.1776C21.3428 33.265 20.8897 33.3629 20.806 33.3951C20.6743 33.4457 20.6303 33.6029 20.4773 34.5691L20.3008 35.6847L20.0813 35.7285C19.9605 35.7526 19.4688 35.7724 18.9884 35.7724C18.508 35.7724 18.0162 35.7526 17.8954 35.7285L17.6759 35.6847L17.4994 34.5691C17.295 33.2777 17.4227 33.4118 16.1766 33.1799C15.7135 33.0937 14.8805 32.8716 14.3255 32.6864C13.7705 32.5012 13.2777 32.3644 13.2305 32.3824C13.1834 32.4006 12.8294 32.7996 12.444 33.2693L11.7432 34.1232L11.2962 33.8998C10.5791 33.5414 9.61516 32.9431 9.57138 32.8292C9.54923 32.7715 9.70808 32.2529 9.92445 31.6768L10.3178 30.6294L9.91449 30.291C9.39515 29.8553 8.11287 28.5743 7.6767 28.0555L7.33798 27.6526L6.3062 28.0381C5.73876 28.25 5.2322 28.4229 5.18062 28.4223C5.06756 28.421 4.66529 27.8058 4.18868 26.9055L3.83829 26.2436L4.72356 25.5107C5.2105 25.1077 5.60891 24.7496 5.60891 24.7149C5.60891 24.6802 5.45973 24.2051 5.2774 23.6591C5.09499 23.1132 4.8743 22.2822 4.78689 21.8126C4.55052 20.5424 4.68454 20.6714 3.38889 20.4678C2.41256 20.3143 2.26709 20.2735 2.23193 20.1428C2.17961 19.9484 2.17961 18.0335 2.23193 17.839C2.26709 17.7084 2.41256 17.6676 3.38889 17.5141C4.68454 17.3105 4.55052 17.4395 4.78689 16.1693C4.8743 15.6996 5.09499 14.8686 5.2774 14.3227C5.45973 13.7767 5.60891 13.3017 5.60891 13.267C5.60891 13.2323 5.2105 12.8742 4.72356 12.4711L3.83829 11.7383L4.18868 11.0764C4.66529 10.1761 5.06756 9.56088 5.18062 9.55954C5.2322 9.55895 5.73876 9.73189 6.3062 9.94381L7.33798 10.3293L7.6767 9.92636C8.11287 9.40754 9.39515 8.12658 9.91449 7.69086L10.3178 7.35249L9.92445 6.30506C9.70808 5.72899 9.54923 5.2104 9.57138 5.15271C9.61516 5.0388 10.5791 4.44046 11.2962 4.08203L11.7432 3.85868L12.444 4.7126C12.8294 5.18226 13.1834 5.5813 13.2305 5.59942C13.2777 5.61746 13.7705 5.48069 14.3255 5.2955C14.8805 5.11023 15.7135 4.88814 16.1766 4.80193C17.4228 4.57003 17.2949 4.70473 17.5 3.40892C17.6348 2.55685 17.705 2.28197 17.7939 2.25813C17.9713 2.21038 19.9703 2.20578 20.1452 2.25263ZM17.6263 7.04017C15.1839 7.32375 12.898 8.3238 10.9801 9.94782C10.3676 10.4664 8.99094 11.9468 8.99094 12.0869C8.99094 12.1276 10.2922 12.9114 11.8826 13.8285L14.7744 15.4959L15.1903 15.1411C15.9533 14.4902 16.7099 14.073 17.5761 13.8256C18.2387 13.6363 19.7333 13.6319 20.3635 13.8172C21.3304 14.1016 22.0291 14.4813 22.7882 15.1348L23.2059 15.4945L26.1145 13.8207C27.7141 12.9002 29.023 12.1241 29.023 12.0962C29.023 11.9777 27.4383 10.3023 26.9282 9.88136C24.2638 7.68306 20.9107 6.65888 17.6263 7.04017ZM20.1796 9.26653C21.4506 9.42225 22.8474 9.88158 23.9313 10.5004C24.5434 10.8499 25.45 11.491 25.4532 11.5767C25.4555 11.6361 23.5292 12.7536 23.4246 12.7536C23.3834 12.7536 23.1963 12.6554 23.0087 12.5355C21.6898 11.692 19.6499 11.2658 17.9849 11.4856C17.1146 11.6006 15.9026 12.0053 15.1806 12.422C14.8647 12.6044 14.5821 12.7536 14.5524 12.7536C14.4583 12.7536 12.5216 11.6331 12.5231 11.5796C12.524 11.5514 12.733 11.3748 12.9877 11.187C15.0666 9.65414 17.6695 8.95905 20.1796 9.26653ZM7.47846 14.9948C7.07946 16.2048 6.95681 16.7076 6.83142 17.6487C6.13985 22.8377 8.91378 27.9423 13.6737 30.2404C14.6371 30.7055 15.5607 31.0092 16.8154 31.2735C17.3168 31.3792 17.7601 31.4656 17.8003 31.4656C17.8472 31.4656 17.8734 30.2556 17.8734 28.093V24.7205L17.4832 24.5922C16.5296 24.2789 15.7781 23.8325 15.109 23.182C13.758 21.8686 13.1809 20.0357 13.5223 18.1422C13.5936 17.7462 13.6401 17.413 13.6257 17.4017C13.5336 17.3298 8.00101 14.1637 7.90237 14.1264C7.80158 14.0884 7.7271 14.241 7.47846 14.9948ZM27.2762 15.7224C25.7227 16.62 24.4232 17.3645 24.3886 17.3769C24.3539 17.3892 24.3836 17.7463 24.4546 18.1703C24.9254 20.9831 23.4334 23.5331 20.7537 24.4953L20.1033 24.7288V28.0972C20.1033 30.257 20.1296 31.4656 20.1765 31.4656C20.3922 31.4656 22.1703 31.0507 22.7792 30.8583C27.7857 29.276 31.2572 24.4739 31.2508 19.1394C31.2499 18.3447 31.1005 17.1003 30.9202 16.3864C30.7443 15.6891 30.2081 14.0902 30.1503 14.0903C30.123 14.0904 28.8297 14.8248 27.2762 15.7224ZM18.2079 15.755C17.582 15.9115 17.1135 16.1786 16.6416 16.6483C15.3226 17.961 15.3235 20.0145 16.6437 21.3332C18.5644 23.2519 21.8114 22.2068 22.2724 19.5215C22.4531 18.4688 22.1137 17.43 21.333 16.6466C20.4886 15.7991 19.3411 15.4717 18.2079 15.755ZM10.1833 17.9916L11.1623 18.5516L11.207 19.4581C11.2595 20.5219 11.3738 21.0898 11.7216 22.0148C12.3498 23.6855 13.8162 25.332 15.4019 26.1475L15.6435 26.2716V27.4628V28.654L15.4763 28.6053C15.124 28.5027 13.9456 27.8917 13.3764 27.5164C13.0494 27.3008 12.4107 26.7562 11.957 26.3062C10.4455 24.807 9.58417 23.2106 9.12719 21.0608C8.92991 20.1329 8.95281 17.4316 9.15796 17.4316C9.18345 17.4316 9.6449 17.6836 10.1833 17.9916ZM28.9255 17.7843C29.0367 18.4348 28.9909 20.3866 28.8486 21.0608C28.3966 23.2025 27.5331 24.8033 26.0191 26.3065C25.5659 26.7567 24.9274 27.3018 24.6003 27.518C24.0341 27.8922 22.8581 28.5012 22.5005 28.6053L22.3332 28.654V27.4664V26.2788L22.7606 26.0374C24.7187 24.9313 26.1271 23.0359 26.617 20.8473C26.6763 20.5818 26.745 19.9588 26.7695 19.4627L26.814 18.5609L27.7884 17.9977C28.3243 17.6879 28.7858 17.4338 28.814 17.433C28.8422 17.4323 28.8924 17.5903 28.9255 17.7843ZM19.5106 18.0266C19.8422 18.1956 20.1033 18.6229 20.1033 18.9964C20.1033 19.5452 19.5377 20.1047 18.9829 20.1047C18.6372 20.1047 18.1779 19.816 18.0144 19.4957C17.7399 18.9582 17.9122 18.3714 18.4378 18.0535C18.7937 17.8383 19.1248 17.83 19.5106 18.0266Z" fill="white"/>
</svg>
