<svg width="16" height="16" viewBox="0 0 16 16" fill="none" xmlns="http://www.w3.org/2000/svg">
<path d="M2 5.33333L7.26 8.84C7.47911 8.98619 7.7366 9.0642 8 9.0642C8.2634 9.0642 8.52089 8.98619 8.74 8.84L14 5.33333M3.33333 12.6667H12.6667C13.0203 12.6667 13.3594 12.5262 13.6095 12.2761C13.8595 12.0261 14 11.687 14 11.3333V4.66667C14 4.31305 13.8595 3.97391 13.6095 3.72386C13.3594 3.47381 13.0203 3.33333 12.6667 3.33333H3.33333C2.97971 3.33333 2.64057 3.47381 2.39052 3.72386C2.14048 3.97391 2 4.31305 2 4.66667V11.3333C2 11.687 2.14048 12.0261 2.39052 12.2761C2.64057 12.5262 2.97971 12.6667 3.33333 12.6667Z" stroke="#F9FAFB" stroke-linecap="round" stroke-linejoin="round"/>
</svg>
