<svg width="16" height="16" viewBox="0 0 16 16" fill="none" xmlns="http://www.w3.org/2000/svg">
<g clip-path="url(#clip0_32_180)">
<path d="M8 4.8999C9.69421 4.8999 11.075 6.29628 11.0752 7.99951C11.0752 9.72564 9.69659 11.1001 8 11.1001C6.27858 11.0999 4.90039 9.7005 4.90039 7.99951C4.9006 6.27822 6.29918 4.90011 8 4.8999ZM8 5.0249C6.34589 5.02511 5.0256 6.37696 5.02539 7.99951C5.02539 9.6538 6.37732 10.9749 8 10.9751C9.63271 10.9751 10.9502 9.61903 10.9502 7.99951C10.95 6.35186 9.62932 5.0249 8 5.0249Z" fill="#F9FAFB" stroke="#F9FAFB"/>
<path d="M11.75 2.8999C11.25 2.8999 10.875 3.2999 10.875 3.7749C10.875 4.2499 11.275 4.6499 11.75 4.6499C12.225 4.6499 12.625 4.2499 12.625 3.7749C12.625 3.2999 12.25 2.8999 11.75 2.8999Z" fill="#F9FAFB"/>
<path d="M11.7252 0.449949H4.2752C2.1502 0.449949 0.450195 2.14995 0.450195 4.27495V11.7499C0.450195 13.8499 2.1752 15.5749 4.2752 15.5749H11.7502C13.8502 15.5749 15.5752 13.8499 15.5752 11.7499V4.27495C15.5752 2.14995 13.8502 0.449949 11.7252 0.449949ZM14.4502 11.7249C14.4502 13.2249 13.2502 14.4249 11.7502 14.4249H4.2752C2.7752 14.4249 1.5752 13.2249 1.5752 11.7249V4.27495C1.5752 2.77495 2.8002 1.57495 4.2752 1.57495H11.7252C13.2252 1.57495 14.4252 2.79995 14.4252 4.27495V11.7249H14.4502Z" fill="#F9FAFB"/>
</g>
<defs>
<clipPath id="clip0_32_180">
<rect width="16" height="16" fill="white"/>
</clipPath>
</defs>
</svg>
