<svg width="16" height="16" viewBox="0 0 16 16" fill="none" xmlns="http://www.w3.org/2000/svg">
<path d="M11.7713 11.1047L8.94266 13.9333C8.81895 14.0572 8.67206 14.1554 8.51037 14.2224C8.34867 14.2894 8.17536 14.3239 8.00033 14.3239C7.82529 14.3239 7.65198 14.2894 7.49029 14.2224C7.32859 14.1554 7.1817 14.0572 7.05799 13.9333L4.22866 11.1047C3.48281 10.3588 2.97488 9.40847 2.76912 8.37391C2.56335 7.33935 2.66899 6.26701 3.07266 5.29249C3.47634 4.31796 4.15992 3.48503 5.03698 2.899C5.91404 2.31298 6.94517 2.00019 7.99999 2.00019C9.05481 2.00019 10.0859 2.31298 10.963 2.899C11.8401 3.48503 12.5236 4.31796 12.9273 5.29249C13.331 6.26701 13.4366 7.33935 13.2309 8.37391C13.0251 9.40847 12.5172 10.3588 11.7713 11.1047V11.1047Z" stroke="#F9FAFB" stroke-linecap="round" stroke-linejoin="round"/>
<path d="M9.41421 8.74755C9.78929 8.37247 10 7.86376 10 7.33333C10 6.8029 9.78929 6.29419 9.41421 5.91912C9.03914 5.54405 8.53043 5.33333 8 5.33333C7.46957 5.33333 6.96086 5.54405 6.58579 5.91912C6.21071 6.29419 6 6.8029 6 7.33333C6 7.86376 6.21071 8.37247 6.58579 8.74755C6.96086 9.12262 7.46957 9.33333 8 9.33333C8.53043 9.33333 9.03914 9.12262 9.41421 8.74755Z" stroke="#F9FAFB" stroke-linecap="round" stroke-linejoin="round"/>
</svg>
