<svg width="38" height="38" viewBox="0 0 38 38" fill="none" xmlns="http://www.w3.org/2000/svg">
<path fill-rule="evenodd" clip-rule="evenodd" d="M10.1744 0.0524229C9.79614 0.169062 9.45976 0.377249 9.1822 0.666303C8.70115 1.16719 8.64752 1.41216 8.64752 3.10784V4.63635H8.22052C7.76951 4.63635 7.27751 4.80063 7.00512 5.04221C6.78899 5.23404 6.53027 5.80655 6.52798 6.09857L6.52611 6.33168H5.4133C4.15081 6.33168 3.84363 6.43391 3.49173 6.97133L3.30004 7.26411H1.82192H0.343895L0.168073 7.48747C-0.0632461 7.78119 -0.0542516 8.04846 0.196839 8.34014L0.401512 8.578L1.85154 8.60631L3.30157 8.63471V8.92418V9.21374H1.94785C0.469907 9.21374 0.230018 9.26867 0.0750698 9.64233C-0.0412683 9.92282 0.0228829 10.174 0.269391 10.4034C0.43206 10.5548 0.576826 10.5704 1.85383 10.5738L3.25914 10.5777L3.47128 11.0135C3.79034 11.6688 4.01843 11.7567 5.4004 11.7567H6.52611L6.52798 11.9899C6.53044 12.2984 6.79324 12.8554 7.04526 13.0861C7.33157 13.3483 7.65504 13.4521 8.18632 13.4521H8.64752V14.0878V14.7236H8.12871C7.25333 14.7236 6.69056 15.1714 6.56277 15.9697L6.50702 16.318L5.39217 16.3494C4.13333 16.385 3.85347 16.4787 3.5339 16.9715L3.34399 17.2645L1.91611 17.2656L0.488236 17.2666L0.230272 17.5243C0.0143974 17.7399 -0.0191208 17.8264 0.0249197 18.0541C0.126323 18.5787 0.269476 18.6228 1.86843 18.6228H3.30157V18.9619V19.301H1.82277H0.343895L0.168073 19.5243C-0.0632461 19.8181 -0.0542515 20.0852 0.196754 20.377L0.401342 20.6149L1.8467 20.6416L3.29206 20.6683L3.38362 20.9454C3.49122 21.2711 3.84015 21.6267 4.17686 21.7538C4.30822 21.8034 4.88566 21.844 5.46006 21.844H6.50439L6.56014 22.1919C6.69328 23.0239 7.11459 23.3906 8.01101 23.4545L8.60509 23.4969L8.62978 24.0989L8.65448 24.7009L8.09001 24.7535C7.1823 24.8382 6.68106 25.2607 6.56412 26.0398L6.50871 26.4088L5.33532 26.4363C4.04143 26.4665 3.86849 26.5279 3.51371 27.0821L3.34399 27.3473L1.8764 27.3505C0.433334 27.3537 0.405246 27.3573 0.200488 27.5619C-0.0797931 27.8418 -0.0658768 28.1565 0.2402 28.4623L0.488236 28.7101H1.8949H3.30157V29.0068V29.3034H1.8949H0.488236L0.230272 29.5611C0.0143974 29.7768 -0.0191208 29.8632 0.0249197 30.0909C0.126238 30.615 0.270409 30.6597 1.85918 30.6597H3.28315L3.34043 30.8876C3.42444 31.222 3.70183 31.5749 4.00833 31.7372C4.20809 31.843 4.56465 31.8888 5.39243 31.915L6.50744 31.9503L6.56328 32.301C6.68632 33.0742 7.28999 33.5418 8.16519 33.5418H8.64752V34.7736C8.64752 36.1469 8.71973 36.4368 9.1822 36.9187C9.33146 37.0742 9.6064 37.284 9.79308 37.3849L10.1325 37.5682H19.0849H28.0372L28.3766 37.3853C28.8209 37.1457 29.1325 36.8093 29.3456 36.3391C29.4932 36.0134 29.5187 35.781 29.5203 34.7497L29.5222 33.5418H29.9562C30.7424 33.5418 31.301 33.0717 31.3702 32.3515L31.4088 31.9499L32.5657 31.9151C33.4357 31.889 33.7894 31.8449 33.9917 31.7375C34.2983 31.5748 34.5756 31.2219 34.6596 30.8876L34.7168 30.6597H36.1408C37.7296 30.6597 37.8738 30.615 37.9751 30.0909C38.0191 29.8632 37.9856 29.7768 37.7697 29.5611L37.5118 29.3034H36.1051H34.6984V29.0068V28.7101H36.1051H37.5118L37.7598 28.4623C38.0659 28.1565 38.0798 27.8418 37.7995 27.5619C37.5948 27.3573 37.5667 27.3537 36.1236 27.3505L34.656 27.3473L34.4863 27.0821C34.133 26.5301 33.959 26.468 32.6348 26.4214L31.4315 26.379L31.3853 25.9775C31.3031 25.2632 30.8179 24.8359 29.9924 24.7508L29.5222 24.7023V24.0784V23.4545H30.0116C30.8107 23.4545 31.3082 23.0147 31.4399 22.1919L31.4956 21.844H32.5399C33.1143 21.844 33.6918 21.8034 33.8231 21.7538C34.1599 21.6267 34.5088 21.2711 34.6164 20.9454L34.7079 20.6683L36.1533 20.6416L37.5987 20.6149L37.8032 20.377C38.0542 20.0852 38.0632 19.8181 37.8319 19.5243L37.6561 19.301H36.1772H34.6984V18.9619V18.6228H36.1316C37.7305 18.6228 37.8737 18.5787 37.9751 18.0541C38.0191 17.8264 37.9856 17.7399 37.7697 17.5243L37.5118 17.2666L36.0839 17.2656L34.656 17.2645L34.4661 16.9715C34.1465 16.4787 33.8667 16.385 32.6078 16.3494L31.493 16.318L31.4372 15.9697C31.315 15.2062 30.7414 14.7236 29.9562 14.7236H29.5222V14.0878V13.4521H29.8985C30.3485 13.4521 30.6808 13.337 30.9547 13.0861C31.2068 12.8554 31.4696 12.2984 31.472 11.9899L31.4739 11.7567H32.5996C33.9816 11.7567 34.2097 11.6688 34.5287 11.0135L34.7409 10.5777L36.1254 10.5738C36.8868 10.5717 37.5785 10.5333 37.6624 10.4885C37.9141 10.3539 38.0464 9.93511 37.9276 9.6486C37.7698 9.26817 37.5351 9.21374 36.0521 9.21374H34.6984V8.92418V8.63471L36.1485 8.60631L37.5985 8.578L37.8032 8.34014C38.0543 8.04846 38.0632 7.78119 37.8319 7.48747L37.6561 7.26411H36.1781H34.7L34.5083 6.97133C34.1564 6.43391 33.8492 6.33168 32.5867 6.33168H31.4739V6.11705C31.4739 5.85394 31.2637 5.3355 31.0676 5.11486C30.8464 4.86606 30.2852 4.64025 29.8828 4.63821L29.5222 4.63635L29.5203 3.13174C29.5187 1.80184 29.4984 1.5828 29.3456 1.24568C29.1325 0.775397 28.8209 0.439043 28.3766 0.199493L28.0372 0.0165666L19.2121 0.00164777C14.3584 -0.00648983 10.2914 0.0163123 10.1744 0.0524229ZM27.767 1.42903C27.8689 1.48328 27.9989 1.58822 28.0557 1.66214C28.1361 1.76683 28.1597 5.56709 28.1618 18.7975C28.1645 35.7605 28.1641 35.7989 27.9924 35.983C27.8978 36.0844 27.7355 36.1882 27.6318 36.2134C27.5281 36.2386 23.5927 36.2486 18.8864 36.2356L10.3296 36.2119L10.1674 36.0118C10.009 35.8162 10.0052 35.4231 10.0052 18.8198C10.0052 6.95887 10.0325 1.77692 10.0956 1.65917C10.1453 1.56635 10.2695 1.45684 10.3714 1.41581C10.668 1.29646 27.5419 1.30926 27.767 1.42903ZM8.64752 9.04421V12.0958H8.30809H7.96867V9.04421V5.99261H8.30809H8.64752V9.04421ZM30.0313 9.04421V12.0958H29.7768H29.5222V9.04421V5.99261H29.7768H30.0313V9.04421ZM6.61097 9.03243V10.3768L6.16547 10.4303C5.9204 10.4597 5.48136 10.4841 5.18962 10.4845L4.65927 10.4852V9.08659V7.68795H5.63512H6.61097V9.03243ZM33.3407 9.04421V10.4005H32.3649H31.389V9.04421V7.68795H32.3649H33.3407V9.04421ZM18.1776 8.87553C18.0753 8.91664 17.9311 9.04269 17.8571 9.15551C17.783 9.26834 16.6925 11.5976 15.4337 14.3316C13.8553 17.7595 13.1449 19.3924 13.1449 19.5922C13.1449 19.8043 13.2048 19.9292 13.3685 20.0577C13.5752 20.2201 13.7033 20.2334 15.0656 20.2334C15.8761 20.2334 16.5392 20.2526 16.5392 20.2761C16.5392 20.2997 15.7702 22.1592 14.8302 24.4085C13.8904 26.6578 13.1203 28.6091 13.119 28.7447C13.1161 29.0401 13.4763 29.3882 13.7847 29.3882C13.8981 29.3882 14.1046 29.2833 14.2438 29.1551C14.383 29.0269 16.8648 26.1946 19.759 22.8612C24.6025 17.2826 25.0213 16.7761 25.023 16.4956C25.0242 16.2919 24.9657 16.1373 24.8464 16.0294C24.6839 15.8824 24.4793 15.8641 22.569 15.8255L20.47 15.7832L22.7473 12.7777C25.0863 9.69115 25.1682 9.55502 24.9417 9.13228C24.8961 9.04701 24.7377 8.93512 24.5897 8.88358C24.2628 8.76974 18.4586 8.76245 18.1776 8.87553ZM22.9883 10.1769C22.9883 10.1938 21.9572 11.5715 20.6971 13.2386C18.2759 16.4416 18.2298 16.5217 18.5681 16.9393C18.7285 17.1374 18.7514 17.1398 20.7898 17.1818L22.8494 17.2242L19.5136 21.0631C17.679 23.1745 16.1648 24.889 16.1488 24.8729C16.1329 24.857 16.596 23.7049 17.178 22.3128C17.7601 20.9207 18.2363 19.6777 18.2363 19.5507C18.2363 19.4237 18.1634 19.2297 18.0743 19.1197C17.9175 18.926 17.8633 18.9182 16.384 18.8771L14.8556 18.8348L16.8551 14.4905L18.8546 10.1462H20.9215C22.0582 10.1462 22.9883 10.16 22.9883 10.1769ZM8.64752 19.0891V22.0983H8.30809H7.96867V19.0891V16.0798H8.30809H8.64752V19.0891ZM30.0313 19.0891V22.0983H29.7768H29.5222V19.0891V16.0798H29.7768H30.0313V19.0891ZM6.59187 19.1102L6.61521 20.4877H5.63724H4.65927V19.0863V17.6848L5.6139 17.7088L6.56854 17.7328L6.59187 19.1102ZM33.3407 19.0891V20.4877H32.3649H31.389V19.1456C31.389 18.4074 31.4145 17.778 31.4456 17.7469C31.4767 17.7158 31.9158 17.6904 32.4215 17.6904H33.3407V19.0891ZM8.62741 29.1551L8.64964 32.1855H8.3092H7.96867V29.1288V26.072L8.28688 26.0984L8.60509 26.1247L8.62741 29.1551ZM30.0313 29.1339V32.1855H29.7768H29.5222V29.1339V26.0823H29.7768H30.0313V29.1339ZM6.59187 29.1551L6.56854 30.5326L5.6139 30.5565L4.65927 30.5805V29.1791V27.7776H5.63724H6.61521L6.59187 29.1551ZM33.3407 29.1791V30.5805L32.3861 30.5565L31.4315 30.5326L31.4081 29.1551L31.3848 27.7776H32.3628H33.3407V29.1791Z" fill="white"/>
</svg>
