<svg width="38" height="38" viewBox="0 0 38 38" fill="none" xmlns="http://www.w3.org/2000/svg">
<path fill-rule="evenodd" clip-rule="evenodd" d="M5.22204 0.15115C5.1151 0.235524 4.97298 0.469438 4.90618 0.671036C4.78899 1.02499 4.76657 1.04474 4.25448 1.24534L3.72415 1.45304L3.37242 1.29702C2.7667 1.02835 2.69481 1.05693 1.87621 1.89251C1.47128 2.30585 1.14 2.7082 1.14 2.78663C1.14 2.86506 1.21304 3.10583 1.30226 3.32176L1.46452 3.71436L1.25712 4.24446C1.05769 4.75421 1.0355 4.77967 0.676172 4.90924C0.065284 5.12951 0 5.26975 0 6.36196C0 7.45517 0.070148 7.60562 0.673816 7.80676C1.02782 7.92467 1.04979 7.94929 1.25332 8.45637L1.4649 8.98342L1.29398 9.40575C1.19594 9.64805 1.14175 9.90262 1.16683 10.0028C1.22778 10.2464 2.60209 11.5829 2.79163 11.5829C2.87531 11.5829 3.11737 11.5105 3.32964 11.4221L3.71556 11.2613L4.24794 11.4707C4.76193 11.6729 4.78496 11.6933 4.91629 12.0596C5.11951 12.6262 5.2899 12.7262 6.05226 12.7262H6.688V15.0332V17.3402L6.49633 17.623C6.22212 18.0277 6.04268 18.7748 6.11108 19.2272C6.2415 20.09 6.92193 20.9368 7.68869 21.1906C7.87109 21.251 8.03122 21.3679 8.09347 21.4862C8.15009 21.5938 8.40423 21.8866 8.65823 22.1368C8.91222 22.387 9.12 22.6512 9.12 22.7239C9.12 23.1364 8.62311 23.5367 8.233 23.4384C7.94078 23.3649 7.70564 23.0799 7.65024 22.7321C7.56154 22.1762 7.06564 21.9393 6.66026 22.2591C6.48941 22.3938 6.46023 22.4751 6.46167 22.8117C6.46684 24.0318 7.71149 24.9367 8.90568 24.5885C9.6805 24.3626 10.232 23.6997 10.3148 22.8945C10.3498 22.5545 10.3231 22.4191 10.1515 22.0674C10.0387 21.8361 9.82026 21.5396 9.66614 21.4085C9.47408 21.245 9.41845 21.1578 9.48936 21.131C9.54613 21.1096 9.76836 20.9484 9.98313 20.7727C10.9144 20.0114 11.1286 18.6675 10.4815 17.6444L10.26 17.2941V14.7907C10.26 12.7381 10.2805 12.2383 10.374 12.0139C10.4367 11.8634 10.488 11.6287 10.488 11.4923C10.488 11.2928 10.5729 11.1584 10.9226 10.8039L11.3572 10.3634L19.0736 10.3637L26.79 10.364L26.9297 10.7047C27.0856 11.0848 27.4758 11.4668 27.8865 11.641C28.0521 11.7113 28.5062 11.7711 29.051 11.7944L29.944 11.8325V18.453C29.944 22.9579 29.9189 25.0736 29.8655 25.0736C29.5954 25.0736 27.8937 24.0384 26.7569 23.1825C24.0685 21.1586 22.1098 18.4175 20.7871 14.8282C20.4354 13.874 20.368 13.6099 20.368 13.1866C20.368 12.1792 19.8774 11.6613 18.924 11.662C18.2908 11.6626 17.8674 11.8489 17.6324 12.2302C17.4937 12.4552 17.4462 12.6753 17.4043 13.2872C17.3563 13.988 17.3038 14.1878 16.8408 15.432C16.263 16.9846 15.5658 18.4822 14.9812 19.4266C12.2767 23.7952 8.0294 26.3085 2.02912 27.0908C1.53581 27.1551 1.0811 27.2077 1.01863 27.2077C0.956156 27.2077 0.82118 27.2919 0.71858 27.3948L0.532 27.5819V32.0399V36.4978L0.715312 36.7117L0.898624 36.9256L3.06348 36.9489C5.42959 36.9744 5.7304 36.9328 5.80838 36.5686C5.82912 36.4715 5.85633 35.8947 5.86872 35.2869C5.88985 34.2547 5.90535 34.1529 6.10432 33.7454C7.01138 31.8872 10.0431 31.9171 10.914 33.7928C11.079 34.1482 11.0946 34.2815 11.0952 35.3398C11.096 36.4533 11.1031 36.5061 11.2793 36.7117L11.4626 36.9256L13.4749 36.9492C15.678 36.975 15.9918 36.9289 16.0678 36.5686C16.0882 36.4715 16.1169 35.8915 16.1317 35.2799C16.1564 34.2517 16.1742 34.1354 16.3663 33.7416C17.2499 31.9304 20.2791 31.9211 21.1678 33.7269C21.2915 33.9781 21.3232 34.2448 21.3553 35.3039C21.4094 37.0848 21.1481 36.9256 24.016 36.9256C26.8836 36.9256 26.622 37.0849 26.6783 35.3041C26.725 33.8243 26.788 33.6371 27.4359 33.053C27.9416 32.597 28.5179 32.3807 29.2342 32.3778C29.5357 32.3766 29.8188 32.3982 29.8632 32.4257C29.9176 32.4594 29.944 33.2948 29.944 34.9809V37.4862L30.1443 37.6441C30.3359 37.7953 30.435 37.8021 32.4453 37.8021C34.8198 37.8021 34.8467 37.7963 34.9315 37.2644L34.9795 36.9637H35.7944C36.6674 36.9637 37.0467 36.8785 37.1656 36.6558C37.2117 36.5696 37.24 34.8612 37.24 32.1754C37.24 28.1505 37.2303 27.8223 37.1067 27.6692C37.0088 27.548 36.7107 27.438 35.9857 27.2559L34.998 27.0076L34.9786 19.4183L34.9592 11.829L35.2929 11.7788C35.7593 11.7087 35.8966 11.5271 35.9346 10.9307L35.9657 10.4397H36.7607C37.5381 10.4397 37.5606 10.4347 37.7779 10.2169L38 9.99408V8.49692C38 6.47987 38.0015 6.48239 36.7738 6.47873L35.9657 6.47629L35.9342 5.97927C35.9097 5.59406 35.8645 5.44407 35.7332 5.31236L35.5639 5.14247L31.5949 5.11998C29.412 5.10764 27.5208 5.11663 27.3922 5.14003C26.9956 5.21213 26.8757 5.35329 26.8309 5.80115L26.79 6.20953L19.741 6.22896L12.692 6.2484V5.80526C12.692 5.56159 12.6493 5.30527 12.597 5.23584C12.5448 5.16633 12.3139 5.02646 12.084 4.92502C11.6902 4.75124 11.6532 4.71107 11.4454 4.22907L11.2249 3.71749L11.3884 3.37992C11.6836 2.77063 11.6401 2.64822 10.8446 1.85044C10.0531 1.05663 9.97766 1.02903 9.34435 1.30228L8.97043 1.46356L8.46663 1.24511C7.99566 1.04092 7.95082 0.999766 7.78058 0.61532C7.68041 0.389104 7.53897 0.158619 7.46624 0.103285C7.37329 0.0324777 7.04915 0.00183784 6.37526 0.000161034C5.5274 -0.00197308 5.39402 0.0154809 5.22204 0.15115ZM6.878 1.61615C7.02802 2.00806 7.03752 2.01606 7.6 2.22277C7.9135 2.33793 8.29434 2.5018 8.44634 2.58686C8.7818 2.77467 8.97575 2.78031 9.40766 2.61491L9.73841 2.48824L9.97812 2.72863C10.2073 2.95843 10.2133 2.97985 10.1154 3.21734C9.93252 3.66055 9.92917 3.93044 10.1025 4.24179C10.1917 4.40178 10.3585 4.78996 10.4733 5.10436C10.6794 5.66845 10.6874 5.67798 11.0782 5.82844L11.4743 5.98087L11.4752 6.33735L11.476 6.69374L11.0668 6.88162C10.6877 7.05571 10.6479 7.09945 10.5243 7.47788C10.4509 7.70257 10.2899 8.08877 10.1664 8.33625C9.92955 8.81125 9.9199 9.03273 10.1154 9.50659C10.2133 9.74393 10.2073 9.76557 9.97956 9.99393L9.7413 10.2329L9.42909 10.1076C8.99924 9.93509 8.83143 9.94865 8.27351 10.2011C8.00759 10.3214 7.62379 10.48 7.42064 10.5536C7.08852 10.6738 7.03281 10.7291 6.86873 11.1012L6.68625 11.515L6.33338 11.4918C5.99777 11.4697 5.97542 11.4539 5.87738 11.1688C5.7326 10.7477 5.61176 10.6397 5.11206 10.4848C4.87114 10.41 4.52436 10.2664 4.34142 10.1656C3.94896 9.94934 3.73168 9.93768 3.28434 10.109L2.95359 10.2357L2.71989 10.0013L2.48619 9.76702L2.61113 9.45392C2.78175 9.02618 2.76807 8.76483 2.55459 8.3723C2.45488 8.18884 2.31405 7.85013 2.2417 7.61957C2.08331 7.11516 1.99599 7.01409 1.57654 6.85014C1.26912 6.73002 1.25294 6.70777 1.23105 6.37622L1.20802 6.02836L1.64548 5.81411C2.06781 5.60717 2.08863 5.58271 2.24899 5.10436C2.34027 4.83188 2.50108 4.42579 2.60627 4.20193C2.8044 3.78006 2.80113 3.65507 2.57914 3.17618C2.48702 2.97756 2.49683 2.94631 2.72148 2.72093C2.95397 2.48778 2.97168 2.4829 3.21039 2.58602C3.60316 2.75569 4.01607 2.71735 4.598 2.45714C4.8906 2.32627 5.24582 2.17635 5.38741 2.12384C5.58858 2.04929 5.68526 1.93984 5.82996 1.62285L6.01517 1.21722L6.37055 1.21806L6.726 1.21889L6.878 1.61615ZM5.37791 3.1896C3.78814 3.71711 2.82887 5.27006 3.10285 6.87255C3.59214 9.73379 7.16817 10.6561 8.95972 8.3832C9.45273 7.75768 9.61005 7.26119 9.61218 6.32385C9.61385 5.57958 9.59698 5.48751 9.37072 5.0084C9.0361 4.3001 8.46876 3.7184 7.77883 3.37649C7.28673 3.13259 7.14506 3.09844 6.5192 3.07329C5.97261 3.05126 5.71588 3.07741 5.37791 3.1896ZM7.29273 4.50498C8.03556 4.8773 8.42004 5.50534 8.42946 6.36196C8.44497 7.76469 7.11383 8.74806 5.74134 8.34791C4.91994 8.10843 4.256 7.22072 4.256 6.36196C4.256 5.48583 4.92282 4.59728 5.77554 4.33714C6.23588 4.19675 6.80268 4.25948 7.29273 4.50498ZM28.576 7.24435C28.576 8.16293 28.5765 8.16529 28.8013 8.39067L29.0265 8.61658L31.4206 8.59448C33.5979 8.57428 33.8271 8.56003 33.9504 8.43655C34.0616 8.32512 34.0928 8.12642 34.124 7.33139L34.162 6.36196H34.428H34.694V8.45797V10.554L31.806 10.5764C30.2176 10.5887 28.7731 10.5781 28.5959 10.5528C28.0326 10.4723 28.044 10.519 28.044 8.30012V6.32385H28.31H28.576V7.24435ZM32.908 6.85738V7.39091H31.35H29.792V6.85738V6.32385H31.35H32.908V6.85738ZM15.6479 8.25363C15.9032 8.68617 16.112 9.06459 16.112 9.09462C16.112 9.12458 15.7505 9.13936 15.3085 9.12748L14.5051 9.10583L14.0209 8.28648L13.5369 7.46713H14.3603H15.1837L15.6479 8.25363ZM18.6939 8.24426C18.9458 8.67177 19.152 9.04905 19.152 9.08266C19.152 9.11635 18.7966 9.14394 18.3623 9.14394H17.5726L17.1083 8.3457C16.8529 7.90668 16.644 7.5294 16.644 7.5073C16.644 7.4852 17.0021 7.46713 17.4399 7.46713H18.2357L18.6939 8.24426ZM21.5631 7.9063C21.6979 8.14685 21.9145 8.52367 22.0444 8.74379L22.2805 9.14394H21.4556H20.6307L20.1763 8.36575C19.9264 7.9377 19.7106 7.56042 19.6967 7.52734C19.6827 7.49419 20.0418 7.46751 20.4947 7.46805L21.318 7.46896L21.5631 7.9063ZM24.814 8.24441C25.0648 8.67039 25.2818 9.04821 25.2962 9.08411C25.3107 9.11993 24.9543 9.13944 24.5045 9.12755L23.6864 9.10583L23.4086 8.64852C23.2558 8.397 23.0361 8.02825 22.9202 7.82917L22.7096 7.46713L23.5338 7.4685L24.358 7.46988L24.814 8.24441ZM26.828 8.30554C26.828 8.76666 26.8132 9.14394 26.7951 9.14394C26.777 9.14394 26.5827 8.84387 26.3634 8.47703C26.1441 8.11026 25.9155 7.73291 25.8556 7.63862L25.7465 7.46713H26.2873H26.828V8.30554ZM36.784 8.45797V9.22016H36.366H35.948V8.45797V7.69579H36.366H36.784V8.45797ZM12.689 8.42223C12.8997 8.77984 13.072 9.08853 13.072 9.10819C13.072 9.18258 11.3316 9.1418 11.2851 9.06627C11.2588 9.02351 11.3336 8.75279 11.4514 8.4646C11.606 8.08625 11.7184 7.91949 11.8558 7.86446C12.2358 7.71217 12.2938 7.75105 12.689 8.42223ZM28.8816 9.1803C28.6393 9.43898 28.655 9.81291 28.9177 10.0395C29.1142 10.2089 29.143 10.211 31.3601 10.211H33.6037L33.8259 9.98821C34.1 9.71329 34.1124 9.43029 33.8614 9.17862L33.6749 8.9915H31.3667H29.0585L28.8816 9.1803ZM9.196 11.3535C9.37065 11.4656 9.14835 11.816 8.79122 11.9916C8.53184 12.1191 8.47415 12.1227 8.22274 12.0267C7.78726 11.8605 7.82853 11.7167 8.37619 11.4925C8.91906 11.2704 9.03556 11.2505 9.196 11.3535ZM31.8426 11.9899C31.6971 12.088 31.4839 12.2291 31.369 12.3035L31.16 12.4389V12.1252V11.8116H31.6336H32.1073L31.8426 11.9899ZM33.7278 14.2759L33.706 14.9951L32.6643 14.3033L31.6227 13.6115L32.6643 12.9137L33.706 12.2159L33.7278 12.8863C33.7398 13.255 33.7398 13.8803 33.7278 14.2759ZM19.152 20.3862V27.8937H18.886H18.62V20.3862V12.8786H18.886H19.152V20.3862ZM9.044 14.9302V16.5752H8.474H7.904V14.9302V13.2851H8.474H9.044V14.9302ZM32.4028 15.5844C32.8464 15.8778 33.2093 16.1351 33.2093 16.156C33.2093 16.1877 32.2903 16.813 31.3781 17.4021L31.16 17.5429V16.156V14.7692L31.3781 14.91C31.4981 14.9875 31.9592 15.291 32.4028 15.5844ZM21.4571 19.1081L21.66 19.4304V23.662V27.8937H21.014H20.368L20.3693 22.5012L20.3705 17.1088L20.8124 17.9472C21.0553 18.4084 21.3455 18.9308 21.4571 19.1081ZM33.7278 19.3855L33.706 20.1077L32.6604 19.4156L31.6148 18.7235L32.6604 18.023L33.706 17.3226L33.7278 17.9929C33.7398 18.3616 33.7398 18.9883 33.7278 19.3855ZM17.404 22.6727V27.8937H16.834H16.264V23.802V19.7103L16.815 18.5846C17.1181 17.9655 17.3746 17.4573 17.385 17.4553C17.3954 17.4534 17.404 19.8012 17.404 22.6727ZM8.917 17.8606C9.70664 18.1915 9.87772 19.2376 9.23468 19.8037C8.73308 20.2454 8.02613 20.1945 7.60874 19.6867C6.827 18.7357 7.79175 17.3891 8.917 17.8606ZM32.4028 20.691C32.8464 20.9845 33.2093 21.2417 33.2093 21.2627C33.2093 21.2943 32.2903 21.9197 31.3781 22.5087L31.16 22.6495V21.2627V19.8758L31.3781 20.0167C31.4981 20.0941 31.9592 20.3976 32.4028 20.691ZM23.5113 21.8527L23.94 22.3284V25.111V27.8937H23.408H22.876V24.5238C22.876 21.6795 22.8921 21.1712 22.9793 21.2654C23.0361 21.3268 23.2755 21.5911 23.5113 21.8527ZM15.048 24.7306V27.8937H14.478H13.908V25.3688V22.8438L14.4482 22.2057C14.7454 21.8547 15.0019 21.5675 15.0182 21.5675C15.0346 21.5675 15.048 22.9909 15.048 24.7306ZM33.7278 24.49L33.706 25.21L32.6609 24.5197L31.6156 23.8295L32.6609 23.1293L33.706 22.4292L33.7278 23.0995C33.7398 23.4683 33.7398 24.094 33.7278 24.49ZM25.7276 23.9373L26.22 24.3254V26.1095V27.8937H25.688H25.156V25.7215C25.156 24.5267 25.1739 23.5492 25.1956 23.5492C25.2174 23.5492 25.4568 23.7238 25.7276 23.9373ZM12.692 25.9501V27.8937H12.16H11.628V26.3733V24.8529L12.141 24.4318C12.4232 24.2001 12.6626 24.0097 12.673 24.0086C12.6834 24.0075 12.692 24.8811 12.692 25.9501ZM32.4028 25.7977C32.8464 26.0911 33.2093 26.3484 33.2093 26.3693C33.2093 26.4009 32.2903 27.0263 31.3781 27.6153L31.16 27.7562V26.3693V24.9824L31.3781 25.1233C31.4981 25.2007 31.9592 25.5042 32.4028 25.7977ZM28.0127 25.4994L28.5 25.7727V26.8332V27.8937H27.968H27.436V26.5599C27.436 25.8263 27.4561 25.226 27.4807 25.226C27.5052 25.226 27.7446 25.3491 28.0127 25.4994ZM10.412 26.7885V27.8937H9.88H9.348V27.0622V26.2307L9.823 25.9597C10.0843 25.8106 10.3237 25.6875 10.355 25.686C10.3863 25.6846 10.412 26.1807 10.412 26.7885ZM29.9279 27.1948C29.9462 27.7823 29.9311 27.8937 29.8329 27.8937C29.7358 27.8937 29.716 27.7696 29.716 27.1633C29.716 26.6129 29.7394 26.4406 29.811 26.4644C29.8756 26.4859 29.913 26.7198 29.9279 27.1948ZM8.132 27.322V27.8937H7.6H7.068L7.06868 27.5316L7.06929 27.1696L7.58168 26.9686C7.86342 26.8581 8.10251 26.7637 8.113 26.759C8.12349 26.7543 8.132 27.0076 8.132 27.322ZM33.7278 29.5911L33.706 30.3055L32.667 29.6168L31.628 28.9279L32.667 28.2319L33.706 27.5358L33.7278 28.2062C33.7398 28.5749 33.7398 29.1981 33.7278 29.5911ZM5.852 27.7412C5.852 27.8812 5.80382 27.8931 5.263 27.8863L4.674 27.879L5.168 27.7412C5.81354 27.5613 5.852 27.5613 5.852 27.7412ZM29.944 30.1383V31.1635H29.3135C28.9668 31.1635 28.5136 31.2016 28.3066 31.2481C27.3947 31.453 26.3981 32.1625 25.9382 32.9342C25.602 33.4983 25.46 34.1118 25.46 34.9997V35.7475L24.035 35.7268L22.61 35.7061L22.5705 34.7533C22.5345 33.888 22.509 33.7539 22.2919 33.2915C21.6689 31.9641 20.3573 31.1655 18.7928 31.1612C17.6223 31.1579 16.7854 31.4856 15.9778 32.2634C15.2053 33.0073 14.9015 33.8419 14.8975 35.2315L14.896 35.7478L13.623 35.727L12.35 35.7061L12.3071 34.7395C12.2663 33.8201 12.2505 33.7451 11.9839 33.2041C11.5157 32.2541 10.5296 31.4891 9.45964 31.2458C8.91001 31.1208 7.89397 31.1412 7.38895 31.2874C5.95878 31.7013 4.89934 32.833 4.70964 34.1493C4.67081 34.4187 4.63836 34.8876 4.63752 35.1916L4.636 35.7442H3.192H1.748V32.4287V29.1132H15.846H29.944V30.1383ZM36.024 32.4287V35.7442H35.492H34.96V32.4287V29.1132H35.492H36.024V32.4287ZM32.4028 30.9043C32.8464 31.1978 33.2093 31.455 33.2093 31.4759C33.2093 31.5076 32.2903 32.133 31.3781 32.722L31.16 32.8628V31.4759V30.0891L31.3781 30.2299C31.4981 30.3074 31.9592 30.6109 32.4028 30.9043ZM33.7278 34.6981L33.706 35.413L32.6653 34.7249L31.6244 34.0369L32.6653 33.3396L33.706 32.6425L33.7278 33.3128C33.7398 33.6816 33.7398 34.3049 33.7278 34.6981ZM32.4135 36.024L33.249 36.5826H32.2045H31.16V35.8879V35.1931L31.369 35.3292C31.4839 35.4041 31.954 35.7167 32.4135 36.024Z" fill="white"/>
</svg>
